<?xml version="1.0" encoding="utf-8"?>
<!-- Generator: Adobe Illustrator 21.0.0, SVG Export Plug-In . SVG Version: 6.00 Build 0)  -->
<svg version="1.1" id="Layer_1" xmlns="http://www.w3.org/2000/svg" xmlns:xlink="http://www.w3.org/1999/xlink" x="0px" y="0px"
	 viewBox="0 0 89 89.9" style="enable-background:new 0 0 89 89.9;" xml:space="preserve">
<style type="text/css">
	.st0{fill:none;stroke:#FFFFFF;stroke-miterlimit:10;}
	.st1{fill:#FFFFFF;}
</style>
<path class="st0" d="M106.1,12"/>
<g>
	
		<rect x="61.2" y="11.4" transform="matrix(0.5985 -0.8011 0.8011 0.5985 19.0382 63.7538)" class="st1" width="23.9" height="2.9"/>
	<rect x="58.3" y="13.1" transform="matrix(0.446 -0.895 0.895 0.446 22.4811 65.3952)" class="st1" width="11.5" height="2.9"/>
	<rect x="50.1" y="7.6" transform="matrix(0.2789 -0.9603 0.9603 0.2789 33.9081 63.3227)" class="st1" width="18.1" height="2.9"/>
	<polygon class="st1" points="52.9,16.9 50,16.6 51.2,5.2 54.1,5.5 	"/>
	<polygon class="st1" points="44.7,16.8 43.7,3.9 46.6,3.7 47.6,16.6 	"/>
	<polygon class="st1" points="39.6,17.9 37.3,9.4 40.1,8.7 42.4,17.2 	"/>
	<rect x="33.3" y="13.7" transform="matrix(0.9066 -0.4219 0.4219 0.9066 -3.7777 16.2255)" class="st1" width="2.9" height="5.9"/>
	<polygon class="st1" points="30.3,22.8 28.9,20.9 31.3,19.2 32.6,21.1 	"/>
	<polygon class="st1" points="26.4,26.4 19.7,19.8 21.7,17.7 28.5,24.3 	"/>
	<polygon class="st1" points="23.3,30.6 12.8,23.5 14.5,21.1 24.9,28.3 	"/>
	<polygon class="st1" points="21,35.4 14.4,32.4 15.5,29.8 22.1,32.7 	"/>
	<polygon class="st1" points="0,35.7 19.5,40.4 20.2,37.6 0.7,32.9 	"/>
	
		<rect x="10.4" y="36.5" transform="matrix(5.810993e-02 -0.9983 0.9983 5.810993e-02 -32.6289 53.0508)" class="st1" width="2.9" height="14.6"/>
	<rect x="5.1" y="48.9" transform="matrix(0.9926 -0.1211 0.1211 0.9926 -6.012 1.847)" class="st1" width="14.2" height="2.9"/>
	<rect x="17.1" y="53.7" transform="matrix(0.9552 -0.2961 0.2961 0.9552 -15.4887 8.0299)" class="st1" width="3.3" height="2.9"/>
	<rect x="11.1" y="60.8" transform="matrix(0.8867 -0.4624 0.4624 0.8867 -26.8681 14.9348)" class="st1" width="12" height="2.9"/>
	
		<rect x="13.6" y="66.5" transform="matrix(0.7902 -0.6128 0.6128 0.7902 -37.4044 26.557)" class="st1" width="12.9" height="2.9"/>
	<rect x="18.3" y="71" transform="matrix(0.6671 -0.745 0.745 0.6671 -45.8231 42.4431)" class="st1" width="12.6" height="2.9"/>
	<rect x="28.6" y="72" transform="matrix(0.5238 -0.8519 0.8519 0.5238 -47.5754 61.7761)" class="st1" width="5.8" height="2.9"/>
	<polygon class="st1" points="34.9,84.4 32.2,83.3 36.4,72.8 39,73.8 	"/>
	
		<rect x="36.6" y="78.4" transform="matrix(0.192 -0.9814 0.9814 0.192 -44.6437 105.5332)" class="st1" width="10.4" height="2.9"/>
	<polygon class="st1" points="49.3,82.6 46.5,82.5 46.6,75.3 49.4,75.4 	"/>
	<polygon class="st1" points="54.1,88.9 51.8,75.2 54.7,74.7 57,88.4 	"/>
	
		<rect x="58.3" y="73.4" transform="matrix(0.9408 -0.3388 0.3388 0.9408 -22.7468 24.8411)" class="st1" width="2.9" height="8.4"/>
	<polygon class="st1" points="61.9,72.1 72.3,89.9 74.8,88.5 64.4,70.7 	"/>
	<polygon class="st1" points="68,71 66.4,69.3 68.5,67.4 70.1,69 	"/>
	<polygon class="st1" points="77.4,71.6 70.2,65.7 72,63.5 79.2,69.4 	"/>
	<polygon class="st1" points="80.7,65.6 73.4,61.5 74.8,59 82.1,63.1 	"/>
	<polygon class="st1" points="79.3,58 75.7,56.8 76.7,54.1 80.2,55.3 	"/>
	
		<rect x="81.6" y="45.5" transform="matrix(0.1476 -0.9891 0.9891 0.1476 20.1743 125.6855)" class="st1" width="2.9" height="11.2"/>
	<polygon class="st1" points="77.8,46.5 77.7,43.6 84.8,43.4 84.9,46.3 	"/>
	<rect x="77" y="37.4" transform="matrix(0.9778 -0.2096 0.2096 0.9778 -6.3386 17.9527)" class="st1" width="9" height="2.9"/>
	<polygon class="st1" points="76.1,36.1 75,33.5 80.7,31.1 81.8,33.8 	"/>
	<polygon class="st1" points="73.9,31.3 72.4,28.9 87.4,19.3 89,21.7 	"/>
	<polygon class="st1" points="70.9,27 68.9,24.9 71.2,22.8 73.2,24.9 	"/>
	<path class="st1" d="M46.2,43.8c-0.2-0.3-0.5-0.5-0.8-0.6c-0.3-0.1-0.7-0.2-1.1-0.2h-1.5v6.2h1.5c0.4,0,0.8-0.1,1.1-0.2
		c0.3-0.1,0.6-0.3,0.8-0.6c0.2-0.3,0.4-0.6,0.5-1c0.1-0.4,0.2-0.8,0.2-1.3c0-0.5-0.1-0.9-0.2-1.3C46.6,44.4,46.4,44,46.2,43.8z"/>
	<path class="st1" d="M66.5,46.5l-0.1-2.1l-6.4,0.2l6.3-1.3l-0.4-2.1l-6.3,1.3l5.9-2.4l-0.8-2l-5.9,2.4l5.4-3.4l-1.1-1.8l-5.4,3.5
		l4.7-4.4l-1.4-1.5l-4.7,4.4l3.8-5.1l-1.7-1.3L54.5,36l2.9-5.7l-1.9-0.9l-2.9,5.7l1.8-6.2l-2-0.6l-1.8,6.2l0.7-6.4l-2.1-0.2
		l-0.7,6.6L48,27.9L45.9,28l0.5,6.4l-1.6-6.2l-2,0.5l1.6,6.2l-2.7-5.8L39.7,30l2.7,5.8l-3.7-5.2L37,31.8l3.7,5.2l-4.6-4.5l-1.5,1.5
		l4.6,4.5L33.9,35l-1.2,1.8l5.3,3.6l-5.9-2.6l-0.9,1.9l5.9,2.6l-6.2-1.5l-0.5,2.1l6.2,1.5l-6.4-0.4l-0.1,2.1l6.4,0.4l-6.4,0.8
		l0.3,2.1l6.4-0.8l-6.1,1.9l0.6,2l6.1-1.9l-5.7,3l1,1.9l5.7-3l-5.1,3.9l1.3,1.7l5.1-3.9l-4.3,4.8l1.6,1.4l4.3-4.8L37.9,61l1.8,1.1
		l3.4-5.5l-2.3,6l2,0.8l2.3-6l-1.2,6.3l2.1,0.4l1.2-6.3L47,64.2l2.1,0l0.1-6.4l1.1,6.3l2.1-0.3l-1.1-6.3l2.2,6l2-0.7l-2.2-6l3.2,5.5
		l1.8-1.1l-3.2-5.5l4.2,4.9l1.6-1.4l-4.1-4.9l5,4.1l1.3-1.6l-5-4.1l5.6,3.1l1-1.8l-5.6-3.1l6.1,2.1l0.7-2l-6.1-2.1l6.3,1l0.3-2.1
		l-6.3-0.9L66.5,46.5z M48.8,47.9c-0.2,0.6-0.6,1.1-1,1.5c-0.4,0.4-1,0.8-1.6,1c-0.6,0.2-1.3,0.4-2,0.4h-3.7v-9.6h3.7
		c0.7,0,1.4,0.1,2,0.4c0.6,0.2,1.1,0.6,1.6,1c0.4,0.4,0.8,0.9,1,1.5c0.2,0.6,0.4,1.2,0.4,1.9C49.2,46.7,49.1,47.4,48.8,47.9z
		 M56.4,42.9h-3.9v2.2h3v1.6h-3v2.3h3.9v1.7h-6.2v-9.6h6.2V42.9z"/>
</g>
</svg>
