<svg id="Layer_1" data-name="Layer 1" xmlns="http://www.w3.org/2000/svg" viewBox="0 0 364 332.67"><defs><style>.cls-1,.cls-11{font-size:12px;}.cls-1,.cls-8{font-family:Montserrat-Medium, Montserrat;}.cls-2{letter-spacing:-0.06em;}.cls-3{letter-spacing:0em;}.cls-4{letter-spacing:-0.01em;}.cls-5{letter-spacing:-0.01em;}.cls-6{letter-spacing:-0.02em;}.cls-7{letter-spacing:0em;}.cls-8{font-size:17px;}.cls-9{letter-spacing:-0.06em;}.cls-10{letter-spacing:-0.03em;}.cls-11{font-family:Montserrat-Bold, Montserrat;font-weight:700;}.cls-12{letter-spacing:-0.01em;}.cls-13,.cls-14{fill:none;stroke:gray;stroke-miterlimit:10;}.cls-13{stroke-width:8px;}</style></defs><title>viz</title><text class="cls-1" transform="translate(144.67 16.24)"><tspan class="cls-2">W</tspan><tspan class="cls-3" x="11.9" y="0">or</tspan><tspan class="cls-4" x="24.28" y="0">k</tspan><tspan x="31.4" y="0">shop 1: Getting Star</tspan><tspan class="cls-5" x="151.51" y="0">t</tspan><tspan x="156.43" y="0">ed</tspan></text><text class="cls-1" transform="translate(144.67 75.21)"><tspan class="cls-2">W</tspan><tspan class="cls-3" x="11.9" y="0">or</tspan><tspan class="cls-4" x="24.28" y="0">k</tspan><tspan x="31.4" y="0">shop 2: Finding &amp; Getting Data</tspan></text><text class="cls-1" transform="translate(144.67 134.17)"><tspan class="cls-2">W</tspan><tspan class="cls-3" x="11.9" y="0">or</tspan><tspan class="cls-4" x="24.28" y="0">k</tspan><tspan x="31.4" y="0">shop 3: Sc</tspan><tspan class="cls-6" x="92.57" y="0">r</tspan><tspan x="97.17" y="0">aping &amp; Cleaning</tspan></text><text class="cls-1" transform="translate(144.67 184.6)"><tspan class="cls-2">W</tspan><tspan class="cls-3" x="11.9" y="0">or</tspan><tspan class="cls-4" x="24.28" y="0">k</tspan><tspan x="31.4" y="0">shop 4: Analytics: Intro</tspan><tspan x="0" y="14.4">in</tspan><tspan class="cls-7" x="11.48" y="14.4">t</tspan><tspan x="16.4" y="14.4">o Basic Statistics &amp; Spreadsheets</tspan></text><text class="cls-1" transform="translate(144.67 252.11)"><tspan class="cls-2">W</tspan><tspan class="cls-3" x="11.9" y="0">or</tspan><tspan class="cls-4" x="24.28" y="0">k</tspan><tspan x="31.4" y="0">shop 5: Visualising Data</tspan></text><text class="cls-8" transform="translate(144.67 311.83)">Expedition <tspan class="cls-9" x="98.19" y="0">W</tspan><tspan x="115.05" y="0">ee</tspan><tspan class="cls-10" x="135.18" y="0">k</tspan><tspan x="145.03" y="0">end</tspan></text><text class="cls-11" transform="translate(60.56 16)">23 M<tspan class="cls-12" x="29.3" y="0">a</tspan><tspan x="36.43" y="0">y</tspan></text><text class="cls-11" transform="translate(60.56 74.97)">30 M<tspan class="cls-12" x="29.3" y="0">a</tspan><tspan x="36.43" y="0">y</tspan></text><text class="cls-11" transform="translate(63.24 133.93)">6 June</text><text class="cls-11" transform="translate(55.83 192.9)">13 June</text><text class="cls-11" transform="translate(55.83 251.87)">20 June</text><text class="cls-11" transform="translate(7.8 310.83)">30 June - 2 July</text><line class="cls-13" x1="124" y1="5" x2="124" y2="325.01"/><line class="cls-14" x1="110" y1="13.33" x2="138.67" y2="13.33"/><line class="cls-14" x1="110" y1="72.23" x2="138.67" y2="72.23"/><line class="cls-14" x1="109.67" y1="190.03" x2="138.33" y2="190.03"/><line class="cls-14" x1="110" y1="248.93" x2="138.67" y2="248.93"/><line class="cls-14" x1="110" y1="307.83" x2="138.67" y2="307.83"/><line class="cls-14" x1="109.67" y1="131.13" x2="138.33" y2="131.13"/></svg>