<svg id="Layer_1" data-name="Layer 1" xmlns="http://www.w3.org/2000/svg" viewBox="0 0 364 332.67"><defs><style>.cls-1,.cls-2{fill:none;stroke:gray;stroke-miterlimit:10;}.cls-1{stroke-width:8px;}</style></defs><title>vizzzz</title><path d="M146.42,7.84l1.93,6.61,1.92-6.61h1.58l1.93,6.61,1.91-6.61h1.66l-2.78,8.4h-1.67L151,9.94l-1.9,6.3h-1.65l-2.78-8.4Z"/><path d="M163.72,13A3.38,3.38,0,0,1,157,13a3.38,3.38,0,0,1,6.76,0Zm-5.19,0a1.82,1.82,0,1,0,3.62,0,1.82,1.82,0,1,0-3.62,0Z"/><path d="M168.82,9.76v1.51a1.85,1.85,0,0,0-2.18,1.87v3.09h-1.56V9.82h1.56v1.24A2.34,2.34,0,0,1,168.82,9.76Z"/><path d="M172.52,13.43l-1,1v1.77H170V7.34h1.56V12.5l2.64-2.66H176l-2.37,2.47,2.52,3.93h-1.86Z"/><path d="M179,11c-.5,0-.86.17-.86.56,0,1.08,3.39.52,3.39,2.82,0,1.31-1.16,1.94-2.53,1.94a4.12,4.12,0,0,1-2.65-.9l.54-1.09a3.58,3.58,0,0,0,2.17.79c.54,0,.95-.18.95-.6,0-1.19-3.35-.54-3.33-2.82,0-1.32,1.13-1.93,2.42-1.93a4.32,4.32,0,0,1,2.35.68l-.56,1.13A3.93,3.93,0,0,0,179,11Z"/><path d="M189.13,12.23v4h-1.57V12.69a1.33,1.33,0,0,0-1.43-1.45,1.69,1.69,0,0,0-1.69,1.85v3.15h-1.56V7.34h1.56V11a2.43,2.43,0,0,1,2.31-1.28A2.24,2.24,0,0,1,189.13,12.23Z"/><path d="M197.07,13a3.38,3.38,0,0,1-6.76,0,3.38,3.38,0,0,1,6.76,0Zm-5.19,0a1.82,1.82,0,1,0,3.62,0,1.82,1.82,0,1,0-3.62,0Z"/><path d="M205.24,13.06a3,3,0,0,1-3,3.24A2.48,2.48,0,0,1,200,15.2v3.37h-1.56V9.82H200v1.06a2.44,2.44,0,0,1,2.16-1.1A3,3,0,0,1,205.24,13.06Zm-1.58,0A1.81,1.81,0,1,0,200,13a1.81,1.81,0,1,0,3.61,0Z"/><path d="M213.83,7.83v8.41h-1.62v-7h-1.75V7.83Z"/><path d="M218.8,11.91a.82.82,0,1,1-1.64,0,.82.82,0,1,1,1.64,0Zm0,3.56a.82.82,0,1,1-1.64,0,.82.82,0,1,1,1.64,0Z"/><path d="M229.66,12.07h1.4v3.15a5.88,5.88,0,0,1-3.32,1.09,4.26,4.26,0,1,1,.1-8.52A5.16,5.16,0,0,1,231.12,9l-.91,1.18a3.6,3.6,0,0,0-2.37-.95,2.83,2.83,0,1,0,0,5.65,3.87,3.87,0,0,0,1.81-.53Z"/><path d="M238.61,13.58h-4.74A1.79,1.79,0,0,0,235.71,15a2.38,2.38,0,0,0,1.73-.72l.84.88a3.56,3.56,0,0,1-2.7,1.1,3.1,3.1,0,0,1-3.3-3.25,3.11,3.11,0,0,1,3.26-3.27C237.79,9.78,238.76,11.25,238.61,13.58Zm-1.42-1A1.53,1.53,0,0,0,235.55,11a1.68,1.68,0,0,0-1.72,1.55Z"/><path d="M243.72,15.84a3.09,3.09,0,0,1-1.61.47,1.75,1.75,0,0,1-1.88-1.92V11.23h-.9V10.09h.91V8.32h1.55v1.76h1.83v1.14h-1.83v2.89c0,.61.25.82.67.82a2.18,2.18,0,0,0,.91-.26Z"/><path d="M248.7,15.84a3.09,3.09,0,0,1-1.61.47,1.75,1.75,0,0,1-1.88-1.92V11.23h-.9V10.09h.91V8.32h1.55v1.76h1.84v1.14h-1.84v2.89c0,.61.25.82.67.82a2.18,2.18,0,0,0,.91-.26Z"/><path d="M251.55,8a.84.84,0,1,1-1.68,0,.84.84,0,1,1,1.68,0Zm-.06,1.83v6.42h-1.56V9.82Z"/><path d="M259.66,12.23v4h-1.57V12.69a1.33,1.33,0,0,0-1.43-1.45A1.68,1.68,0,0,0,255,13.09v3.15h-1.56V9.82H255V11a2.44,2.44,0,0,1,2.3-1.26A2.24,2.24,0,0,1,259.66,12.23Z"/><path d="M267.28,9.82v5.8c0,1.83-1.33,3-3.36,3a4.79,4.79,0,0,1-2.71-.85l.62-1.13a3.28,3.28,0,0,0,2,.67,1.66,1.66,0,0,0,1.88-1.66v-.76a2.32,2.32,0,0,1-2,1,2.83,2.83,0,0,1-2.85-3.09,2.79,2.79,0,0,1,2.81-3,2.38,2.38,0,0,1,2.09,1v-1Zm-1.56,3A1.69,1.69,0,0,0,264,11a1.72,1.72,0,0,0-1.72,1.83,1.71,1.71,0,1,0,3.42,0Z"/><path d="M275.53,9.24c-.76,0-1.25.28-1.25.79,0,1.7,4.51.78,4.5,3.79,0,1.57-1.37,2.48-3.21,2.48A5.45,5.45,0,0,1,272,15l.67-1.36a4.72,4.72,0,0,0,2.9,1.24c.9,0,1.44-.34,1.44-.92,0-1.75-4.51-.76-4.51-3.74,0-1.46,1.26-2.4,3.14-2.4a5.71,5.71,0,0,1,3,.89l-.65,1.39A5.37,5.37,0,0,0,275.53,9.24Z"/><path d="M284,15.84a3.09,3.09,0,0,1-1.61.47,1.75,1.75,0,0,1-1.88-1.92V11.23h-.9V10.09h.91V8.32h1.55v1.76h1.84v1.14h-1.84v2.89c0,.61.25.82.67.82a2.18,2.18,0,0,0,.91-.26Z"/><path d="M289,16.24v-.78a2.52,2.52,0,0,1-2.07.85,2,2,0,0,1-2.24-2c0-1.19.88-1.92,2.43-1.93H289v-.17c0-.74-.49-1.19-1.45-1.19a3.76,3.76,0,0,0-1.91.6l-.56-1.08a5.16,5.16,0,0,1,2.82-.79c1.68,0,2.63.85,2.64,2.28v4.2ZM289,14v-.58h-1.62c-.83,0-1.21.23-1.21.79s.43.89,1.14.89A1.57,1.57,0,0,0,289,14Z"/><path d="M296.05,9.76v1.51a1.85,1.85,0,0,0-2.18,1.87v3.09h-1.56V9.82h1.56v1.24A2.34,2.34,0,0,1,296.05,9.76Z"/><path d="M300.9,15.84a3.09,3.09,0,0,1-1.61.47,1.75,1.75,0,0,1-1.88-1.92V11.23h-.9V10.09h.91V8.32H299v1.76h1.83v1.14H299v2.89c0,.61.25.82.67.82a2.18,2.18,0,0,0,.91-.26Z"/><path d="M307.81,13.58h-4.74A1.79,1.79,0,0,0,304.91,15a2.38,2.38,0,0,0,1.73-.72l.84.88a3.56,3.56,0,0,1-2.7,1.1,3.1,3.1,0,0,1-3.3-3.25,3.11,3.11,0,0,1,3.26-3.27C307,9.78,308,11.25,307.81,13.58Zm-1.42-1A1.53,1.53,0,0,0,304.75,11,1.68,1.68,0,0,0,303,12.53Z"/><path d="M315.36,7.34v8.9H313.8v-1a2.44,2.44,0,0,1-2.16,1.1,3,3,0,0,1-3.06-3.3,3,3,0,0,1,3-3.25,2.47,2.47,0,0,1,2.19,1.12V7.34ZM313.8,13a1.81,1.81,0,0,0-1.82-2,1.83,1.83,0,0,0-1.82,2,1.83,1.83,0,1,0,3.65,0Z"/><path d="M146.42,66.81l1.93,6.61,1.92-6.61h1.58l1.93,6.61,1.91-6.61h1.66l-2.78,8.4h-1.67L151,68.91l-1.9,6.3h-1.65l-2.78-8.4Z"/><path d="M163.72,72a3.38,3.38,0,1,1-3.37-3.25A3.15,3.15,0,0,1,163.72,72Zm-5.19,0a1.82,1.82,0,1,0,1.82-1.94A1.8,1.8,0,0,0,158.53,72Z"/><path d="M168.82,68.73v1.51a1.85,1.85,0,0,0-2.18,1.87v3.09h-1.56V68.79h1.56V70A2.34,2.34,0,0,1,168.82,68.73Z"/><path d="M172.52,72.4l-1,1v1.77H170v-8.9h1.56v5.16l2.64-2.66H176l-2.37,2.47,2.52,3.93h-1.86Z"/><path d="M179,69.94c-.5,0-.86.17-.86.56,0,1.08,3.39.52,3.39,2.82,0,1.31-1.16,1.94-2.53,1.94a4.12,4.12,0,0,1-2.65-.9l.54-1.09a3.58,3.58,0,0,0,2.17.79c.54,0,.95-.18.95-.6,0-1.19-3.35-.54-3.33-2.82,0-1.32,1.13-1.93,2.42-1.93a4.32,4.32,0,0,1,2.35.68l-.56,1.13A3.93,3.93,0,0,0,179,69.94Z"/><path d="M189.13,71.2v4h-1.57V71.66a1.33,1.33,0,0,0-1.43-1.45,1.69,1.69,0,0,0-1.69,1.85v3.15h-1.56v-8.9h1.56V70a2.43,2.43,0,0,1,2.31-1.28A2.24,2.24,0,0,1,189.13,71.2Z"/><path d="M197.07,72a3.38,3.38,0,1,1-3.37-3.25A3.15,3.15,0,0,1,197.07,72Zm-5.19,0a1.82,1.82,0,1,0,1.82-1.94A1.8,1.8,0,0,0,191.87,72Z"/><path d="M205.24,72a3,3,0,0,1-3,3.24,2.48,2.48,0,0,1-2.18-1.1v3.37h-1.56V68.79H200v1.06a2.44,2.44,0,0,1,2.16-1.1A3,3,0,0,1,205.24,72Zm-1.58,0a1.81,1.81,0,1,0-1.8,1.94A1.8,1.8,0,0,0,203.65,72Z"/><path d="M214,69.11c0-.62-.5-1-1.34-1a3.81,3.81,0,0,0-2.35,1.06L209.66,68a5.25,5.25,0,0,1,3.23-1.22c1.65,0,2.79.84,2.79,2.15a4.54,4.54,0,0,1-1.6,2.77l-2.16,2.15H216v1.42h-6.22V74L213,70.78A2.89,2.89,0,0,0,214,69.11Z"/><path d="M218.8,70.88a.82.82,0,1,1-1.64,0,.82.82,0,1,1,1.64,0Zm0,3.56a.82.82,0,1,1-1.64,0,.82.82,0,1,1,1.64,0Z"/><path d="M229.75,66.81v1.4h-4.17v2.27h3.8v1.4h-3.8v3.32H224v-8.4Z"/><path d="M232.52,67a.84.84,0,1,1-.84-.86A.82.82,0,0,1,232.52,67Zm-.06,1.83v6.42H230.9V68.79Z"/><path d="M240.62,71.2v4h-1.57V71.66a1.33,1.33,0,0,0-1.43-1.45,1.68,1.68,0,0,0-1.68,1.85v3.15h-1.56V68.79h1.56V70a2.44,2.44,0,0,1,2.3-1.26A2.24,2.24,0,0,1,240.62,71.2Z"/><path d="M248.57,66.31v8.9H247v-1a2.44,2.44,0,0,1-2.16,1.1,3,3,0,0,1-3.06-3.3,3,3,0,0,1,3-3.25A2.47,2.47,0,0,1,247,69.85V66.31ZM247,72a1.81,1.81,0,0,0-1.82-2,2,2,0,0,0,0,3.91A1.81,1.81,0,0,0,247,72Z"/><path d="M252.19,67a.84.84,0,1,1-.84-.86A.82.82,0,0,1,252.19,67Zm-.06,1.83v6.42h-1.56V68.79Z"/><path d="M260.3,71.2v4h-1.57V71.66a1.33,1.33,0,0,0-1.43-1.45,1.68,1.68,0,0,0-1.68,1.85v3.15h-1.56V68.79h1.56V70a2.44,2.44,0,0,1,2.3-1.26A2.24,2.24,0,0,1,260.3,71.2Z"/><path d="M267.92,68.79v5.8c0,1.83-1.33,3-3.36,3a4.79,4.79,0,0,1-2.71-.85l.62-1.13a3.28,3.28,0,0,0,2,.67,1.66,1.66,0,0,0,1.88-1.66v-.76a2.32,2.32,0,0,1-2,1,2.83,2.83,0,0,1-2.85-3.09,2.79,2.79,0,0,1,2.81-3,2.38,2.38,0,0,1,2.09,1v-1Zm-1.56,3a1.69,1.69,0,0,0-1.7-1.83,1.84,1.84,0,0,0,0,3.67A1.69,1.69,0,0,0,266.36,71.82Z"/><path d="M279.53,75.48l-1.27-1.26a3.62,3.62,0,0,1-2.49,1.06,2.49,2.49,0,0,1-2.7-2.39c0-1.16.84-1.8,1.77-2.3a3.27,3.27,0,0,1-.77-1.92,2,2,0,0,1,2.24-1.93c1.3,0,2.19.74,2.19,1.81s-1,1.76-2,2.28c.43.48,1,1,1.63,1.69a6.64,6.64,0,0,0,.7-1.46l1,.76a6.86,6.86,0,0,1-.84,1.56l1.33,1.3Zm-2.11-2.09c-.8-.79-1.44-1.45-1.94-2-.64.37-1.12.79-1.12,1.4a1.36,1.36,0,0,0,1.46,1.33A2.36,2.36,0,0,0,277.42,73.4ZM275.87,70c.77-.4,1.39-.82,1.39-1.5a.85.85,0,0,0-.94-.85,1,1,0,0,0-1,1A2.44,2.44,0,0,0,275.87,70Z"/><path d="M290.75,71h1.4v3.15a5.88,5.88,0,0,1-3.32,1.09,4.26,4.26,0,1,1,.1-8.52,5.16,5.16,0,0,1,3.29,1.2l-.91,1.18a3.6,3.6,0,0,0-2.37-.95,2.83,2.83,0,1,0,0,5.65,3.87,3.87,0,0,0,1.81-.53Z"/><path d="M299.7,72.54H295A1.79,1.79,0,0,0,296.8,74a2.38,2.38,0,0,0,1.73-.72l.84.88a3.56,3.56,0,0,1-2.7,1.1,3.26,3.26,0,1,1,0-6.52C298.88,68.74,299.86,70.22,299.7,72.54Zm-1.42-1A1.53,1.53,0,0,0,296.64,70a1.68,1.68,0,0,0-1.72,1.55Z"/><path d="M304.81,74.81a3.09,3.09,0,0,1-1.61.47,1.75,1.75,0,0,1-1.88-1.92V70.19h-.9V69.05h.91V67.29h1.55v1.76h1.83v1.14h-1.83v2.89c0,.61.25.82.67.82a2.18,2.18,0,0,0,.91-.26Z"/><path d="M309.79,74.81a3.09,3.09,0,0,1-1.61.47,1.75,1.75,0,0,1-1.88-1.92V70.19h-.9V69.05h.91V67.29h1.55v1.76h1.84v1.14h-1.84v2.89c0,.61.25.82.67.82a2.18,2.18,0,0,0,.91-.26Z"/><path d="M312.64,67a.84.84,0,1,1-.84-.86A.82.82,0,0,1,312.64,67Zm-.06,1.83v6.42H311V68.79Z"/><path d="M320.75,71.2v4h-1.57V71.66a1.33,1.33,0,0,0-1.43-1.45,1.68,1.68,0,0,0-1.68,1.85v3.15h-1.56V68.79h1.56V70a2.44,2.44,0,0,1,2.3-1.26A2.24,2.24,0,0,1,320.75,71.2Z"/><path d="M328.37,68.79v5.8c0,1.83-1.33,3-3.36,3a4.79,4.79,0,0,1-2.71-.85l.62-1.13a3.28,3.28,0,0,0,2,.67,1.66,1.66,0,0,0,1.88-1.66v-.76a2.32,2.32,0,0,1-2,1,2.83,2.83,0,0,1-2.85-3.09,2.79,2.79,0,0,1,2.81-3,2.38,2.38,0,0,1,2.09,1v-1Zm-1.56,3A1.69,1.69,0,0,0,325.1,70a1.84,1.84,0,0,0,0,3.67A1.69,1.69,0,0,0,326.81,71.82Z"/><path d="M341.73,71a4.16,4.16,0,0,1-4.44,4.2h-3.43v-8.4h3.49A4.13,4.13,0,0,1,341.73,71Zm-1.64,0a2.69,2.69,0,0,0-2.76-2.79h-1.86v5.56h1.92A2.64,2.64,0,0,0,340.09,71Z"/><path d="M346.87,75.21v-.78a2.52,2.52,0,0,1-2.07.85,2,2,0,0,1-2.24-2c0-1.19.88-1.92,2.43-1.93h1.87v-.17c0-.74-.49-1.19-1.45-1.19a3.76,3.76,0,0,0-1.91.6l-.56-1.08a5.16,5.16,0,0,1,2.82-.79c1.68,0,2.63.85,2.64,2.28v4.2Zm0-2.23V72.4h-1.62c-.83,0-1.21.23-1.21.79s.43.89,1.14.89A1.57,1.57,0,0,0,346.86,73Z"/><path d="M353.92,74.81a3.09,3.09,0,0,1-1.61.47,1.75,1.75,0,0,1-1.88-1.92V70.19h-.9V69.05h.91V67.29H352v1.76h1.83v1.14H352v2.89c0,.61.25.82.67.82a2.18,2.18,0,0,0,.91-.26Z"/><path d="M358.93,75.21v-.78a2.52,2.52,0,0,1-2.07.85,2,2,0,0,1-2.24-2c0-1.19.88-1.92,2.43-1.93h1.87v-.17c0-.74-.49-1.19-1.45-1.19a3.76,3.76,0,0,0-1.91.6L355,69.52a5.16,5.16,0,0,1,2.82-.79c1.68,0,2.63.85,2.64,2.28v4.2Zm0-2.23V72.4H357.3c-.83,0-1.21.23-1.21.79s.43.89,1.14.89A1.57,1.57,0,0,0,358.92,73Z"/><path d="M146.42,125.78l1.93,6.61,1.92-6.61h1.58l1.93,6.61,1.91-6.61h1.66l-2.78,8.4h-1.67l-1.87-6.3-1.9,6.3h-1.65l-2.78-8.4Z"/><path d="M163.72,131a3.38,3.38,0,1,1-3.37-3.25A3.15,3.15,0,0,1,163.72,131Zm-5.19,0a1.82,1.82,0,1,0,1.82-1.94A1.8,1.8,0,0,0,158.53,131Z"/><path d="M168.82,127.7v1.51a1.85,1.85,0,0,0-2.18,1.87v3.09h-1.56v-6.42h1.56V129A2.34,2.34,0,0,1,168.82,127.7Z"/><path d="M172.52,131.37l-1,1v1.77H170v-8.9h1.56v5.16l2.64-2.66H176l-2.37,2.47,2.52,3.93h-1.86Z"/><path d="M179,128.91c-.5,0-.86.17-.86.56,0,1.08,3.39.52,3.39,2.82,0,1.31-1.16,1.94-2.53,1.94a4.12,4.12,0,0,1-2.65-.9l.54-1.09A3.58,3.58,0,0,0,179,133c.54,0,.95-.18.95-.6,0-1.19-3.35-.54-3.33-2.82,0-1.32,1.13-1.93,2.42-1.93a4.32,4.32,0,0,1,2.35.68l-.56,1.13A3.93,3.93,0,0,0,179,128.91Z"/><path d="M189.13,130.17v4h-1.57v-3.55a1.33,1.33,0,0,0-1.43-1.45,1.69,1.69,0,0,0-1.69,1.85v3.15h-1.56v-8.9h1.56V129a2.43,2.43,0,0,1,2.31-1.28A2.24,2.24,0,0,1,189.13,130.17Z"/><path d="M197.07,131a3.38,3.38,0,1,1-3.37-3.25A3.15,3.15,0,0,1,197.07,131Zm-5.19,0A1.82,1.82,0,1,0,193.7,129,1.8,1.8,0,0,0,191.87,131Z"/><path d="M205.24,131a3,3,0,0,1-3,3.24,2.48,2.48,0,0,1-2.18-1.1v3.37h-1.56v-8.74H200v1.06a2.44,2.44,0,0,1,2.16-1.1A3,3,0,0,1,205.24,131Zm-1.58,0a1.81,1.81,0,1,0-1.8,1.94A1.8,1.8,0,0,0,203.65,130.95Z"/><path d="M215.88,131.56c0,1.58-1.28,2.69-3.32,2.69a5.52,5.52,0,0,1-3.12-.95l.66-1.31a3.52,3.52,0,0,0,2.34.92c1.19,0,1.87-.52,1.87-1.33s-.7-1.27-1.88-1.27h-1.28v-.92l2.34-2.22h-3.61v-1.39h5.6v1l-2.59,2.46.48,0C214.86,129.44,215.88,130.24,215.88,131.56Z"/><path d="M218.8,129.84a.82.82,0,1,1-1.64,0,.82.82,0,1,1,1.64,0Zm0,3.56a.82.82,0,1,1-1.64,0,.82.82,0,1,1,1.64,0Z"/><path d="M226.72,127.17c-.76,0-1.25.28-1.25.79,0,1.7,4.51.78,4.5,3.79,0,1.57-1.37,2.48-3.21,2.48a5.45,5.45,0,0,1-3.55-1.34l.67-1.36a4.72,4.72,0,0,0,2.9,1.24c.9,0,1.44-.34,1.44-.92,0-1.75-4.51-.76-4.51-3.74,0-1.46,1.26-2.4,3.14-2.4a5.71,5.71,0,0,1,3,.89l-.65,1.39A5.37,5.37,0,0,0,226.72,127.17Z"/><path d="M234.17,129.08a1.91,1.91,0,0,0,0,3.81,2.06,2.06,0,0,0,1.73-.76l1,.8a3.22,3.22,0,0,1-2.78,1.3,3.26,3.26,0,0,1,0-6.52,3.27,3.27,0,0,1,2.69,1.18l-.95.9A2.2,2.2,0,0,0,234.17,129.08Z"/><path d="M241.95,127.7v1.51a1.85,1.85,0,0,0-2.18,1.87v3.09H238.2v-6.42h1.56V129A2.34,2.34,0,0,1,241.95,127.7Z"/><path d="M246.6,134.17v-.78a2.52,2.52,0,0,1-2.07.85,2,2,0,0,1-2.24-2c0-1.19.88-1.92,2.43-1.93h1.87v-.17c0-.74-.49-1.19-1.45-1.19a3.76,3.76,0,0,0-1.91.6l-.56-1.08a5.16,5.16,0,0,1,2.82-.79c1.68,0,2.63.85,2.64,2.28v4.2Zm0-2.23v-.58H245c-.83,0-1.21.23-1.21.79s.43.89,1.14.89A1.57,1.57,0,0,0,246.59,131.94Z"/><path d="M256.7,131a3,3,0,0,1-3,3.24,2.48,2.48,0,0,1-2.18-1.1v3.37H250v-8.74h1.56v1.06a2.44,2.44,0,0,1,2.16-1.1A3,3,0,0,1,256.7,131Zm-1.58,0a1.81,1.81,0,1,0-1.8,1.94A1.8,1.8,0,0,0,255.12,130.95Z"/><path d="M259.68,125.92a.84.84,0,1,1-.84-.86A.82.82,0,0,1,259.68,125.92Zm-.06,1.83v6.42h-1.56v-6.42Z"/><path d="M267.79,130.17v4h-1.57v-3.55a1.33,1.33,0,0,0-1.43-1.45,1.68,1.68,0,0,0-1.68,1.85v3.15h-1.56v-6.42h1.56V129a2.44,2.44,0,0,1,2.3-1.26A2.24,2.24,0,0,1,267.79,130.17Z"/><path d="M275.41,127.76v5.8c0,1.83-1.33,3-3.36,3a4.79,4.79,0,0,1-2.71-.85l.62-1.13a3.28,3.28,0,0,0,2,.67,1.66,1.66,0,0,0,1.88-1.66v-.76a2.32,2.32,0,0,1-2,1,2.83,2.83,0,0,1-2.85-3.09,2.79,2.79,0,0,1,2.81-3,2.38,2.38,0,0,1,2.09,1v-1Zm-1.56,3a1.69,1.69,0,0,0-1.7-1.83,1.84,1.84,0,0,0,0,3.67A1.69,1.69,0,0,0,273.85,130.79Z"/><path d="M287,134.45l-1.27-1.26a3.62,3.62,0,0,1-2.49,1.06,2.49,2.49,0,0,1-2.7-2.39c0-1.16.84-1.8,1.78-2.3a3.27,3.27,0,0,1-.77-1.92,2,2,0,0,1,2.24-1.93c1.3,0,2.19.74,2.19,1.81s-1,1.76-2,2.28c.43.48,1,1,1.63,1.69a6.6,6.6,0,0,0,.7-1.46l1,.76a6.86,6.86,0,0,1-.84,1.56l1.33,1.3Zm-2.11-2.09c-.8-.79-1.44-1.45-1.94-2-.64.37-1.12.79-1.12,1.4a1.36,1.36,0,0,0,1.46,1.33A2.36,2.36,0,0,0,284.91,132.36ZM283.36,129c.77-.4,1.39-.82,1.39-1.5a.85.85,0,0,0-.94-.85,1,1,0,0,0-1,1A2.44,2.44,0,0,0,283.36,129Z"/><path d="M296.34,127.16a2.79,2.79,0,1,0,0,5.58,3.36,3.36,0,0,0,2.28-1l.95,1.06a4.79,4.79,0,0,1-3.31,1.44,4.26,4.26,0,1,1,.06-8.52,4.66,4.66,0,0,1,3.24,1.34l-.94,1.18A3.15,3.15,0,0,0,296.34,127.16Z"/><path d="M302.45,125.27v8.9h-1.56v-8.9Z"/><path d="M310.2,131.51h-4.74A1.79,1.79,0,0,0,307.3,133a2.38,2.38,0,0,0,1.73-.72l.84.88a3.56,3.56,0,0,1-2.7,1.1,3.26,3.26,0,1,1,0-6.52C309.38,127.71,310.36,129.18,310.2,131.51Zm-1.42-1a1.53,1.53,0,0,0-1.64-1.55,1.68,1.68,0,0,0-1.72,1.55Z"/><path d="M315.35,134.17v-.78a2.52,2.52,0,0,1-2.07.85,2,2,0,0,1-2.24-2c0-1.19.88-1.92,2.43-1.93h1.87v-.17c0-.74-.49-1.19-1.45-1.19a3.76,3.76,0,0,0-1.91.6l-.56-1.08a5.16,5.16,0,0,1,2.82-.79c1.68,0,2.63.85,2.64,2.28v4.2Zm0-2.23v-.58h-1.62c-.83,0-1.21.23-1.21.79s.43.89,1.14.89A1.57,1.57,0,0,0,315.34,131.94Z"/><path d="M324.88,130.17v4H323.3v-3.55a1.33,1.33,0,0,0-1.43-1.45A1.68,1.68,0,0,0,320.2,131v3.15h-1.56v-6.42h1.56V129a2.44,2.44,0,0,1,2.3-1.26A2.24,2.24,0,0,1,324.88,130.17Z"/><path d="M328.25,125.92a.84.84,0,1,1-.84-.86A.82.82,0,0,1,328.25,125.92Zm-.06,1.83v6.42h-1.56v-6.42Z"/><path d="M336.36,130.17v4h-1.57v-3.55a1.33,1.33,0,0,0-1.43-1.45,1.68,1.68,0,0,0-1.68,1.85v3.15h-1.56v-6.42h1.56V129a2.44,2.44,0,0,1,2.3-1.26A2.24,2.24,0,0,1,336.36,130.17Z"/><path d="M344,127.76v5.8c0,1.83-1.33,3-3.36,3a4.79,4.79,0,0,1-2.71-.85l.62-1.13a3.28,3.28,0,0,0,2,.67,1.66,1.66,0,0,0,1.88-1.66v-.76a2.32,2.32,0,0,1-2,1,2.83,2.83,0,0,1-2.85-3.09,2.79,2.79,0,0,1,2.81-3,2.38,2.38,0,0,1,2.09,1v-1Zm-1.56,3a1.69,1.69,0,0,0-1.7-1.83,1.84,1.84,0,0,0,0,3.67A1.69,1.69,0,0,0,342.42,130.79Z"/><path d="M146.42,176.21l1.93,6.61,1.92-6.61h1.58l1.93,6.61,1.91-6.61h1.66l-2.78,8.4h-1.67L151,178.3l-1.9,6.3h-1.65l-2.78-8.4Z"/><path d="M163.72,181.39a3.38,3.38,0,1,1-3.37-3.25A3.15,3.15,0,0,1,163.72,181.39Zm-5.19,0a1.82,1.82,0,1,0,1.82-1.94A1.8,1.8,0,0,0,158.53,181.41Z"/><path d="M168.82,178.12v1.51a1.85,1.85,0,0,0-2.18,1.87v3.09h-1.56v-6.42h1.56v1.24A2.34,2.34,0,0,1,168.82,178.12Z"/><path d="M172.52,181.79l-1,1v1.77H170v-8.9h1.56v5.16l2.64-2.66H176l-2.37,2.47,2.52,3.93h-1.86Z"/><path d="M179,179.34c-.5,0-.86.17-.86.56,0,1.08,3.39.52,3.39,2.82,0,1.31-1.16,1.94-2.53,1.94a4.12,4.12,0,0,1-2.65-.9l.54-1.09a3.58,3.58,0,0,0,2.17.79c.54,0,.95-.18.95-.6,0-1.19-3.35-.54-3.33-2.82,0-1.32,1.13-1.93,2.42-1.93a4.32,4.32,0,0,1,2.35.68l-.56,1.13A3.93,3.93,0,0,0,179,179.34Z"/><path d="M189.13,180.59v4h-1.57v-3.55a1.33,1.33,0,0,0-1.43-1.45,1.69,1.69,0,0,0-1.69,1.85v3.15h-1.56v-8.9h1.56v3.71a2.43,2.43,0,0,1,2.31-1.28A2.24,2.24,0,0,1,189.13,180.59Z"/><path d="M197.07,181.39a3.38,3.38,0,1,1-3.37-3.25A3.15,3.15,0,0,1,197.07,181.39Zm-5.19,0a1.82,1.82,0,1,0,1.82-1.94A1.8,1.8,0,0,0,191.87,181.41Z"/><path d="M205.24,181.42a3,3,0,0,1-3,3.24,2.48,2.48,0,0,1-2.18-1.1v3.37h-1.56v-8.74H200v1.06a2.44,2.44,0,0,1,2.16-1.1A3,3,0,0,1,205.24,181.42Zm-1.58,0a1.81,1.81,0,1,0-1.8,1.94A1.8,1.8,0,0,0,203.65,181.37Z"/><path d="M214,176.19l-2.67,5h2.33V179.3h1.49v1.93h1.2v1.38h-1.21v2h-1.49v-2h-4v-1.18l2.82-5.24Z"/><path d="M218.8,180.27a.82.82,0,1,1-1.64,0,.82.82,0,1,1,1.64,0Zm0,3.56a.82.82,0,1,1-1.64,0,.82.82,0,1,1,1.64,0Z"/><path d="M229.43,182.83h-4.1l-.74,1.77h-1.67l3.68-8.4h1.67l3.63,8.4h-1.73Zm-.58-1.38-1.46-3.53-1.49,3.53Z"/><path d="M239.1,180.59v4h-1.57v-3.55a1.33,1.33,0,0,0-1.43-1.45,1.68,1.68,0,0,0-1.68,1.85v3.15h-1.56v-6.42h1.56v1.2a2.44,2.44,0,0,1,2.3-1.26A2.24,2.24,0,0,1,239.1,180.59Z"/><path d="M244.65,184.6v-.78a2.52,2.52,0,0,1-2.07.85,2,2,0,0,1-2.24-2c0-1.19.88-1.92,2.43-1.93h1.87v-.17c0-.74-.49-1.19-1.45-1.19a3.76,3.76,0,0,0-1.91.6l-.56-1.08a5.16,5.16,0,0,1,2.82-.79c1.68,0,2.63.85,2.64,2.28v4.2Zm0-2.23v-.58H243c-.83,0-1.21.23-1.21.79s.43.89,1.14.89A1.57,1.57,0,0,0,244.63,182.37Z"/><path d="M249.55,175.7v8.9H248v-8.9Z"/><path d="M252.12,187a2.38,2.38,0,0,1-1.6-.58l.67-1.19a1.3,1.3,0,0,0,.83.32,1,1,0,0,0,.94-.65l.19-.42-2.65-6.31h1.62l1.82,4.67,1.67-4.67h1.57l-2.88,7.22A2.22,2.22,0,0,1,252.12,187Z"/><path d="M261.84,184.2a3.09,3.09,0,0,1-1.61.47,1.75,1.75,0,0,1-1.88-1.92v-3.17h-.9v-1.14h.91v-1.76h1.55v1.76h1.84v1.14H259.9v2.89c0,.61.25.82.67.82a2.18,2.18,0,0,0,.91-.26Z"/><path d="M264.69,176.35a.84.84,0,1,1-.84-.86A.82.82,0,0,1,264.69,176.35Zm-.06,1.83v6.42h-1.56v-6.42Z"/><path d="M269.29,179.5a1.91,1.91,0,0,0,0,3.81,2.06,2.06,0,0,0,1.73-.76l1,.8a3.22,3.22,0,0,1-2.78,1.3,3.26,3.26,0,0,1,0-6.52,3.27,3.27,0,0,1,2.69,1.18l-.95.9A2.2,2.2,0,0,0,269.29,179.5Z"/><path d="M275.25,179.34c-.5,0-.86.17-.86.56,0,1.08,3.39.52,3.39,2.82,0,1.31-1.16,1.94-2.53,1.94a4.12,4.12,0,0,1-2.65-.9l.54-1.09a3.58,3.58,0,0,0,2.17.79c.54,0,.95-.18.95-.6,0-1.19-3.35-.54-3.33-2.82,0-1.32,1.13-1.93,2.42-1.93a4.32,4.32,0,0,1,2.35.68l-.56,1.13A3.93,3.93,0,0,0,275.25,179.34Z"/><path d="M280.31,180.27a.82.82,0,1,1-1.64,0,.82.82,0,1,1,1.64,0Zm0,3.56a.82.82,0,1,1-1.64,0,.82.82,0,1,1,1.64,0Z"/><path d="M287.08,176.21v8.4h-1.61v-8.4Z"/><path d="M295.32,180.59v4h-1.57v-3.55a1.33,1.33,0,0,0-1.43-1.45,1.68,1.68,0,0,0-1.68,1.85v3.15h-1.56v-6.42h1.56v1.2a2.44,2.44,0,0,1,2.3-1.26A2.24,2.24,0,0,1,295.32,180.59Z"/><path d="M300.83,184.2a3.09,3.09,0,0,1-1.61.47,1.75,1.75,0,0,1-1.88-1.92v-3.17h-.9v-1.14h.91v-1.76h1.55v1.76h1.83v1.14h-1.83v2.89c0,.61.25.82.67.82a2.18,2.18,0,0,0,.91-.26Z"/><path d="M305.8,178.12v1.51a1.85,1.85,0,0,0-2.18,1.87v3.09h-1.56v-6.42h1.56v1.24A2.34,2.34,0,0,1,305.8,178.12Z"/><path d="M313.07,181.39a3.38,3.38,0,1,1-3.37-3.25A3.15,3.15,0,0,1,313.07,181.39Zm-5.19,0a1.82,1.82,0,1,0,1.82-1.94A1.8,1.8,0,0,0,307.87,181.41Z"/><path d="M147.26,190.75a.84.84,0,1,1-.84-.86A.82.82,0,0,1,147.26,190.75Zm-.06,1.83V199h-1.56v-6.42Z"/><path d="M155.37,195v4H153.8v-3.55a1.33,1.33,0,0,0-1.43-1.45,1.68,1.68,0,0,0-1.68,1.85V199h-1.56v-6.42h1.56v1.2a2.44,2.44,0,0,1,2.3-1.26A2.24,2.24,0,0,1,155.37,195Z"/><path d="M160.88,198.6a3.09,3.09,0,0,1-1.61.47,1.75,1.75,0,0,1-1.88-1.92V194h-.9v-1.14h.91v-1.76h1.55v1.76h1.84V194h-1.84v2.89c0,.61.25.82.67.82a2.18,2.18,0,0,0,.91-.26Z"/><path d="M168.22,195.79a3.38,3.38,0,1,1-3.37-3.25A3.15,3.15,0,0,1,168.22,195.79Zm-5.19,0a1.82,1.82,0,1,0,1.82-1.94A1.8,1.8,0,0,0,163,195.81Z"/><path d="M179.86,192.7a1.84,1.84,0,0,1-1.46,1.86,2.05,2.05,0,0,1,1.79,2.12c0,1.44-1.19,2.31-3.11,2.31h-3.84v-8.4H177C178.75,190.6,179.86,191.41,179.86,192.7Zm-1.64.29c0-.64-.5-1-1.33-1h-2v2h2C177.71,194,178.21,193.65,178.21,193Zm.3,3.49c0-.68-.61-1.1-1.63-1.09h-2v2.22h2C177.9,197.62,178.51,197.2,178.51,196.48Z"/><path d="M185.47,199v-.78a2.52,2.52,0,0,1-2.07.85,2,2,0,0,1-2.24-2c0-1.19.88-1.92,2.43-1.93h1.87V195c0-.74-.49-1.19-1.45-1.19a3.76,3.76,0,0,0-1.91.6l-.56-1.08a5.16,5.16,0,0,1,2.82-.79c1.68,0,2.63.85,2.64,2.28V199Zm0-2.23v-.58h-1.62c-.83,0-1.21.23-1.21.79s.43.89,1.14.89A1.57,1.57,0,0,0,185.46,196.77Z"/><path d="M190.68,193.74c-.5,0-.86.17-.86.56,0,1.08,3.39.52,3.39,2.82,0,1.31-1.16,1.94-2.53,1.94a4.12,4.12,0,0,1-2.65-.9l.54-1.09a3.58,3.58,0,0,0,2.17.79c.54,0,.95-.18.95-.6,0-1.19-3.35-.54-3.33-2.82,0-1.32,1.13-1.93,2.42-1.93a4.32,4.32,0,0,1,2.35.68l-.56,1.13A3.93,3.93,0,0,0,190.68,193.74Z"/><path d="M196.17,190.75a.84.84,0,1,1-.84-.86A.82.82,0,0,1,196.17,190.75Zm-.06,1.83V199h-1.56v-6.42Z"/><path d="M200.78,193.9a1.91,1.91,0,0,0,0,3.81,2.06,2.06,0,0,0,1.73-.76l1,.8a3.22,3.22,0,0,1-2.78,1.3,3.26,3.26,0,0,1,0-6.52,3.27,3.27,0,0,1,2.69,1.18l-.95.9A2.2,2.2,0,0,0,200.78,193.9Z"/><path d="M211.23,192c-.76,0-1.25.28-1.25.79,0,1.7,4.51.78,4.5,3.79,0,1.57-1.37,2.48-3.21,2.48a5.45,5.45,0,0,1-3.55-1.34l.67-1.36a4.72,4.72,0,0,0,2.9,1.24c.9,0,1.44-.34,1.44-.92,0-1.75-4.51-.76-4.51-3.74,0-1.46,1.26-2.4,3.14-2.4a5.71,5.71,0,0,1,3,.89l-.65,1.39A5.37,5.37,0,0,0,211.23,192Z"/><path d="M219.7,198.6a3.09,3.09,0,0,1-1.61.47,1.75,1.75,0,0,1-1.88-1.92V194h-.9v-1.14h.91v-1.76h1.55v1.76h1.83V194h-1.83v2.89c0,.61.25.82.67.82a2.18,2.18,0,0,0,.91-.26Z"/><path d="M224.71,199v-.78a2.52,2.52,0,0,1-2.07.85,2,2,0,0,1-2.24-2c0-1.19.88-1.92,2.43-1.93h1.87V195c0-.74-.49-1.19-1.45-1.19a3.76,3.76,0,0,0-1.91.6l-.56-1.08a5.16,5.16,0,0,1,2.82-.79c1.68,0,2.63.85,2.64,2.28V199Zm0-2.23v-.58h-1.62c-.83,0-1.21.23-1.21.79s.43.89,1.14.89A1.57,1.57,0,0,0,224.7,196.77Z"/><path d="M231.76,198.6a3.09,3.09,0,0,1-1.61.47,1.75,1.75,0,0,1-1.88-1.92V194h-.9v-1.14h.91v-1.76h1.55v1.76h1.84V194h-1.84v2.89c0,.61.25.82.67.82a2.18,2.18,0,0,0,.91-.26Z"/><path d="M234.6,190.75a.84.84,0,1,1-.84-.86A.82.82,0,0,1,234.6,190.75Zm-.06,1.83V199H233v-6.42Z"/><path d="M238.4,193.74c-.5,0-.86.17-.86.56,0,1.08,3.39.52,3.39,2.82,0,1.31-1.16,1.94-2.53,1.94a4.12,4.12,0,0,1-2.65-.9l.54-1.09a3.58,3.58,0,0,0,2.17.79c.54,0,.95-.18.95-.6,0-1.19-3.35-.54-3.33-2.82,0-1.32,1.13-1.93,2.42-1.93a4.32,4.32,0,0,1,2.35.68l-.56,1.13A3.93,3.93,0,0,0,238.4,193.74Z"/><path d="M246,198.6a3.09,3.09,0,0,1-1.61.47,1.75,1.75,0,0,1-1.88-1.92V194h-.9v-1.14h.91v-1.76h1.55v1.76h1.83V194h-1.83v2.89c0,.61.25.82.67.82a2.18,2.18,0,0,0,.91-.26Z"/><path d="M248.86,190.75a.84.84,0,1,1-.84-.86A.82.82,0,0,1,248.86,190.75Zm-.06,1.83V199h-1.56v-6.42Z"/><path d="M253.47,193.9a1.91,1.91,0,0,0,0,3.81,2.06,2.06,0,0,0,1.73-.76l1,.8a3.22,3.22,0,0,1-2.78,1.3,3.26,3.26,0,0,1,0-6.52,3.27,3.27,0,0,1,2.69,1.18l-.95.9A2.2,2.2,0,0,0,253.47,193.9Z"/><path d="M259.42,193.74c-.5,0-.86.17-.86.56,0,1.08,3.39.52,3.39,2.82,0,1.31-1.16,1.94-2.53,1.94a4.12,4.12,0,0,1-2.65-.9l.54-1.09a3.58,3.58,0,0,0,2.17.79c.54,0,.95-.18.95-.6,0-1.19-3.35-.54-3.33-2.82,0-1.32,1.13-1.93,2.42-1.93a4.32,4.32,0,0,1,2.35.68l-.56,1.13A3.93,3.93,0,0,0,259.42,193.74Z"/><path d="M273,199.28,271.78,198a3.62,3.62,0,0,1-2.49,1.06,2.49,2.49,0,0,1-2.7-2.39c0-1.16.84-1.8,1.78-2.3a3.27,3.27,0,0,1-.77-1.92,2,2,0,0,1,2.24-1.93c1.3,0,2.19.74,2.19,1.81s-1,1.76-2,2.28c.43.48,1,1,1.63,1.69a6.6,6.6,0,0,0,.7-1.46l1,.76a6.86,6.86,0,0,1-.84,1.56l1.33,1.3Zm-2.11-2.09c-.8-.79-1.44-1.45-1.94-2-.64.37-1.12.79-1.12,1.4a1.36,1.36,0,0,0,1.46,1.33A2.36,2.36,0,0,0,270.94,197.19Zm-1.55-3.35c.77-.4,1.39-.82,1.39-1.5a.85.85,0,0,0-.94-.85,1,1,0,0,0-1,1A2.44,2.44,0,0,0,269.39,193.84Z"/><path d="M281.33,192c-.76,0-1.25.28-1.25.79,0,1.7,4.51.78,4.5,3.79,0,1.57-1.37,2.48-3.21,2.48a5.45,5.45,0,0,1-3.55-1.34l.67-1.36a4.72,4.72,0,0,0,2.9,1.24c.9,0,1.44-.34,1.44-.92,0-1.75-4.51-.76-4.51-3.74,0-1.46,1.26-2.4,3.14-2.4a5.71,5.71,0,0,1,3,.89l-.65,1.39A5.37,5.37,0,0,0,281.33,192Z"/><path d="M292.86,195.82a3,3,0,0,1-3,3.24,2.48,2.48,0,0,1-2.18-1.1v3.37h-1.56v-8.74h1.56v1.06a2.44,2.44,0,0,1,2.16-1.1A3,3,0,0,1,292.86,195.82Zm-1.58,0a1.81,1.81,0,1,0-1.8,1.94A1.8,1.8,0,0,0,291.28,195.77Z"/><path d="M298,192.52V194a1.85,1.85,0,0,0-2.18,1.87V199h-1.56v-6.42h1.56v1.24A2.34,2.34,0,0,1,298,192.52Z"/><path d="M304.8,196.34h-4.74a1.79,1.79,0,0,0,1.83,1.46,2.38,2.38,0,0,0,1.73-.72l.84.88a3.56,3.56,0,0,1-2.7,1.1,3.26,3.26,0,1,1,0-6.52C304,192.54,305,194,304.8,196.34Zm-1.42-1a1.53,1.53,0,0,0-1.64-1.55,1.68,1.68,0,0,0-1.72,1.55Z"/><path d="M309.95,199v-.78a2.52,2.52,0,0,1-2.07.85,2,2,0,0,1-2.24-2c0-1.19.88-1.92,2.43-1.93h1.87V195c0-.74-.49-1.19-1.45-1.19a3.76,3.76,0,0,0-1.91.6l-.56-1.08a5.16,5.16,0,0,1,2.82-.79c1.68,0,2.63.85,2.64,2.28V199Zm0-2.23v-.58h-1.62c-.83,0-1.21.23-1.21.79s.43.89,1.14.89A1.57,1.57,0,0,0,309.94,196.77Z"/><path d="M319.43,190.1V199h-1.56v-1a2.44,2.44,0,0,1-2.16,1.1,3,3,0,0,1-3.06-3.3,3,3,0,0,1,3-3.25,2.47,2.47,0,0,1,2.19,1.12V190.1Zm-1.56,5.71a1.81,1.81,0,0,0-1.82-2,2,2,0,0,0,0,3.91A1.81,1.81,0,0,0,317.87,195.81Z"/><path d="M323.35,193.74c-.5,0-.86.17-.86.56,0,1.08,3.39.52,3.39,2.82,0,1.31-1.16,1.94-2.53,1.94a4.12,4.12,0,0,1-2.65-.9l.54-1.09a3.58,3.58,0,0,0,2.17.79c.54,0,.95-.18.95-.6,0-1.19-3.35-.54-3.33-2.82,0-1.32,1.13-1.93,2.42-1.93a4.32,4.32,0,0,1,2.35.68l-.56,1.13A3.93,3.93,0,0,0,323.35,193.74Z"/><path d="M333.53,195v4H332v-3.55a1.33,1.33,0,0,0-1.43-1.45,1.69,1.69,0,0,0-1.69,1.85V199h-1.56v-8.9h1.56v3.71a2.43,2.43,0,0,1,2.31-1.28A2.24,2.24,0,0,1,333.53,195Z"/><path d="M341,196.34h-4.74a1.79,1.79,0,0,0,1.83,1.46,2.38,2.38,0,0,0,1.73-.72l.84.88a3.56,3.56,0,0,1-2.7,1.1,3.26,3.26,0,1,1,0-6.52C340.21,192.54,341.18,194,341,196.34Zm-1.42-1a1.53,1.53,0,0,0-1.64-1.55,1.68,1.68,0,0,0-1.72,1.55Z"/><path d="M348.13,196.34h-4.74a1.79,1.79,0,0,0,1.83,1.46,2.38,2.38,0,0,0,1.73-.72l.84.88a3.56,3.56,0,0,1-2.7,1.1,3.26,3.26,0,1,1,0-6.52C347.32,192.54,348.29,194,348.13,196.34Zm-1.42-1a1.53,1.53,0,0,0-1.64-1.55,1.68,1.68,0,0,0-1.72,1.55Z"/><path d="M353.24,198.6a3.09,3.09,0,0,1-1.61.47,1.75,1.75,0,0,1-1.88-1.92V194h-.9v-1.14h.91v-1.76h1.55v1.76h1.84V194H351.3v2.89c0,.61.25.82.67.82a2.18,2.18,0,0,0,.91-.26Z"/><path d="M356.39,193.74c-.5,0-.86.17-.86.56,0,1.08,3.39.52,3.39,2.82,0,1.31-1.16,1.94-2.53,1.94a4.12,4.12,0,0,1-2.65-.9l.54-1.09a3.58,3.58,0,0,0,2.17.79c.54,0,.95-.18.95-.6,0-1.19-3.35-.54-3.33-2.82,0-1.32,1.13-1.93,2.42-1.93a4.32,4.32,0,0,1,2.35.68l-.56,1.13A3.93,3.93,0,0,0,356.39,193.74Z"/><path d="M146.42,243.71l1.93,6.61,1.92-6.61h1.58l1.93,6.61,1.91-6.61h1.66l-2.78,8.4h-1.67l-1.87-6.3-1.9,6.3h-1.65l-2.78-8.4Z"/><path d="M163.72,248.89a3.38,3.38,0,1,1-3.37-3.25A3.15,3.15,0,0,1,163.72,248.89Zm-5.19,0a1.82,1.82,0,1,0,1.82-1.94A1.8,1.8,0,0,0,158.53,248.92Z"/><path d="M168.82,245.63v1.51a1.85,1.85,0,0,0-2.18,1.87v3.09h-1.56v-6.42h1.56v1.24A2.34,2.34,0,0,1,168.82,245.63Z"/><path d="M172.52,249.3l-1,1v1.77H170v-8.9h1.56v5.16l2.64-2.66H176l-2.37,2.47,2.52,3.93h-1.86Z"/><path d="M179,246.84c-.5,0-.86.17-.86.56,0,1.08,3.39.52,3.39,2.82,0,1.31-1.16,1.94-2.53,1.94a4.12,4.12,0,0,1-2.65-.9l.54-1.09A3.58,3.58,0,0,0,179,251c.54,0,.95-.18.95-.6,0-1.19-3.35-.54-3.33-2.82,0-1.32,1.13-1.93,2.42-1.93a4.32,4.32,0,0,1,2.35.68l-.56,1.13A3.93,3.93,0,0,0,179,246.84Z"/><path d="M189.13,248.1v4h-1.57v-3.55a1.33,1.33,0,0,0-1.43-1.45,1.69,1.69,0,0,0-1.69,1.85v3.15h-1.56v-8.9h1.56v3.71a2.43,2.43,0,0,1,2.31-1.28A2.24,2.24,0,0,1,189.13,248.1Z"/><path d="M197.07,248.89a3.38,3.38,0,1,1-3.37-3.25A3.15,3.15,0,0,1,197.07,248.89Zm-5.19,0A1.82,1.82,0,1,0,193.7,247,1.8,1.8,0,0,0,191.87,248.92Z"/><path d="M205.24,248.93a3,3,0,0,1-3,3.24,2.48,2.48,0,0,1-2.18-1.1v3.37h-1.56v-8.74H200v1.06a2.44,2.44,0,0,1,2.16-1.1A3,3,0,0,1,205.24,248.93Zm-1.58,0a1.81,1.81,0,1,0-1.8,1.94A1.8,1.8,0,0,0,203.65,248.88Z"/><path d="M212.87,246.77c1.93,0,3.17,1.07,3.17,2.54,0,1.73-1.28,2.85-3.29,2.85a5.91,5.91,0,0,1-3.15-1l.65-1.3a3.63,3.63,0,0,0,2.33.92c1.09,0,1.74-.52,1.74-1.38s-.65-1.27-1.71-1.27c-.52,0-1.74,0-2.33.1V243.7h5.41v1.42h-3.92v1.66Z"/><path d="M218.8,247.78a.82.82,0,1,1-1.64,0,.82.82,0,1,1,1.64,0Zm0,3.56a.82.82,0,1,1-1.64,0,.82.82,0,1,1,1.64,0Z"/><path d="M224.68,243.71l2.47,6.61,2.49-6.61h1.66l-3.36,8.4h-1.67l-3.32-8.4Z"/><path d="M233.93,243.86a.84.84,0,1,1-.84-.86A.82.82,0,0,1,233.93,243.86Zm-.06,1.83v6.42h-1.56v-6.42Z"/><path d="M237.72,246.84c-.5,0-.86.17-.86.56,0,1.08,3.39.52,3.39,2.82,0,1.31-1.16,1.94-2.53,1.94a4.12,4.12,0,0,1-2.65-.9l.54-1.09a3.58,3.58,0,0,0,2.17.79c.54,0,.95-.18.95-.6,0-1.19-3.35-.54-3.33-2.82,0-1.32,1.13-1.93,2.42-1.93a4.32,4.32,0,0,1,2.35.68l-.56,1.13A3.93,3.93,0,0,0,237.72,246.84Z"/><path d="M247.51,245.69v6.42h-1.57v-1.19a2.32,2.32,0,0,1-2.23,1.25,2.22,2.22,0,0,1-2.33-2.46v-4H243v3.56a1.3,1.3,0,0,0,1.38,1.44,1.65,1.65,0,0,0,1.61-1.83v-3.17Z"/><path d="M253.25,252.11v-.78a2.52,2.52,0,0,1-2.07.85,2,2,0,0,1-2.24-2c0-1.19.88-1.92,2.43-1.93h1.87v-.17c0-.74-.49-1.19-1.45-1.19a3.76,3.76,0,0,0-1.91.6l-.56-1.08a5.16,5.16,0,0,1,2.82-.79c1.68,0,2.63.85,2.64,2.28v4.2Zm0-2.23v-.58h-1.62c-.83,0-1.21.23-1.21.79s.43.89,1.14.89A1.57,1.57,0,0,0,253.24,249.88Z"/><path d="M258.16,243.21v8.9H256.6v-8.9Z"/><path d="M261.78,243.86a.84.84,0,1,1-.84-.86A.82.82,0,0,1,261.78,243.86Zm-.06,1.83v6.42h-1.56v-6.42Z"/><path d="M265.57,246.84c-.5,0-.86.17-.86.56,0,1.08,3.39.52,3.39,2.82,0,1.31-1.16,1.94-2.53,1.94a4.12,4.12,0,0,1-2.65-.9l.54-1.09a3.58,3.58,0,0,0,2.17.79c.54,0,.95-.18.95-.6,0-1.19-3.35-.54-3.33-2.82,0-1.32,1.13-1.93,2.42-1.93a4.32,4.32,0,0,1,2.35.68l-.56,1.13A3.93,3.93,0,0,0,265.57,246.84Z"/><path d="M271.06,243.86a.84.84,0,1,1-.84-.86A.82.82,0,0,1,271.06,243.86Zm-.06,1.83v6.42h-1.56v-6.42Z"/><path d="M279.17,248.1v4H277.6v-3.55a1.33,1.33,0,0,0-1.43-1.45,1.68,1.68,0,0,0-1.68,1.85v3.15h-1.56v-6.42h1.56v1.2a2.44,2.44,0,0,1,2.3-1.26A2.24,2.24,0,0,1,279.17,248.1Z"/><path d="M286.79,245.69v5.8c0,1.83-1.33,3-3.36,3a4.79,4.79,0,0,1-2.71-.85l.62-1.13a3.28,3.28,0,0,0,2,.67,1.66,1.66,0,0,0,1.88-1.66v-.76a2.32,2.32,0,0,1-2,1,2.83,2.83,0,0,1-2.85-3.09,2.79,2.79,0,0,1,2.81-3,2.38,2.38,0,0,1,2.09,1v-1Zm-1.56,3a1.69,1.69,0,0,0-1.7-1.83,1.84,1.84,0,0,0,0,3.67A1.69,1.69,0,0,0,285.23,248.73Z"/><path d="M300.15,247.91a4.16,4.16,0,0,1-4.44,4.2h-3.43v-8.4h3.49A4.13,4.13,0,0,1,300.15,247.91Zm-1.64,0a2.69,2.69,0,0,0-2.76-2.79h-1.86v5.56h1.92A2.64,2.64,0,0,0,298.51,247.92Z"/><path d="M305.29,252.11v-.78a2.52,2.52,0,0,1-2.07.85,2,2,0,0,1-2.24-2c0-1.19.88-1.92,2.43-1.93h1.87v-.17c0-.74-.49-1.19-1.45-1.19a3.76,3.76,0,0,0-1.91.6l-.56-1.08a5.16,5.16,0,0,1,2.82-.79c1.68,0,2.63.85,2.64,2.28v4.2Zm0-2.23v-.58h-1.62c-.83,0-1.21.23-1.21.79s.43.89,1.14.89A1.57,1.57,0,0,0,305.28,249.88Z"/><path d="M312.34,251.71a3.09,3.09,0,0,1-1.61.47,1.75,1.75,0,0,1-1.88-1.92v-3.17h-.9V246h.91v-1.76h1.55V246h1.83v1.14h-1.83V250c0,.61.25.82.67.82a2.18,2.18,0,0,0,.91-.26Z"/><path d="M317.35,252.11v-.78a2.52,2.52,0,0,1-2.07.85,2,2,0,0,1-2.24-2c0-1.19.88-1.92,2.43-1.93h1.87v-.17c0-.74-.49-1.19-1.45-1.19a3.76,3.76,0,0,0-1.91.6l-.56-1.08a5.16,5.16,0,0,1,2.82-.79c1.68,0,2.63.85,2.64,2.28v4.2Zm0-2.23v-.58h-1.62c-.83,0-1.21.23-1.21.79s.43.89,1.14.89A1.57,1.57,0,0,0,317.34,249.88Z"/><path d="M154.85,299.94v2h-6.44v2.94h5.78v2h-5.78v3h6.65v2h-8.92v-11.9Z"/><path d="M158.86,302.74l1.89,3,1.94-3h2.43l-2.89,4.44,3.09,4.66h-2.55l-2-3.18-2.19,3.18h-2.46l3.18-4.66-3-4.44Z"/><path d="M176.59,307.33c0,2.74-1.68,4.59-4.27,4.59a3.51,3.51,0,0,1-3.09-1.56v4.78H167V302.74h2.21v1.5a3.45,3.45,0,0,1,3.06-1.56C174.86,302.67,176.59,304.54,176.59,307.33Zm-2.24-.07A2.57,2.57,0,1,0,171.8,310,2.54,2.54,0,0,0,174.35,307.26Z"/><path d="M186.66,308.06h-6.71a2.54,2.54,0,0,0,2.6,2.07,3.38,3.38,0,0,0,2.45-1l1.19,1.24a5,5,0,0,1-3.82,1.56,4.62,4.62,0,1,1-.05-9.25C185.5,302.67,186.88,304.76,186.66,308.06Zm-2-1.48a2.16,2.16,0,0,0-2.33-2.19,2.38,2.38,0,0,0-2.43,2.19Z"/><path d="M197.35,299.22v12.61h-2.21v-1.46a3.45,3.45,0,0,1-3.06,1.56c-2.6,0-4.33-1.9-4.33-4.67s1.73-4.61,4.28-4.61a3.5,3.5,0,0,1,3.11,1.58v-5Zm-2.21,8.09a2.56,2.56,0,0,0-2.58-2.77,2.78,2.78,0,0,0,0,5.54A2.56,2.56,0,0,0,195.14,307.31Z"/><path d="M202.48,300.14a1.19,1.19,0,1,1-1.19-1.22A1.16,1.16,0,0,1,202.48,300.14Zm-.09,2.6v9.09h-2.21v-9.09Z"/><path d="M210.46,311.27a4.38,4.38,0,0,1-2.28.66,2.49,2.49,0,0,1-2.67-2.72v-4.49h-1.27l0-1.61h1.29v-2.5h2.19v2.5h2.6v1.61h-2.6v4.1c0,.87.36,1.16,1,1.16a3.09,3.09,0,0,0,1.29-.37Z"/><path d="M214.48,300.14a1.19,1.19,0,1,1-1.19-1.22A1.16,1.16,0,0,1,214.48,300.14Zm-.08,2.6v9.09h-2.21v-9.09Z"/><path d="M225.89,307.28a4.8,4.8,0,1,1-4.78-4.61A4.47,4.47,0,0,1,225.89,307.28Zm-7.36,0a2.57,2.57,0,1,0,2.58-2.75A2.55,2.55,0,0,0,218.53,307.31Z"/><path d="M236.65,306.16v5.68h-2.23v-5a1.89,1.89,0,0,0-2-2.06,2.38,2.38,0,0,0-2.38,2.62v4.47h-2.21v-9.09H230v1.7a3.46,3.46,0,0,1,3.26-1.79A3.18,3.18,0,0,1,236.65,306.16Z"/><path d="M245.34,299.94l2.74,9.37,2.72-9.37H253l2.74,9.37,2.7-9.37h2.35l-3.94,11.9h-2.36l-2.65-8.92-2.69,8.92h-2.35l-3.94-11.9Z"/><path d="M269.24,308.06h-6.71a2.54,2.54,0,0,0,2.6,2.07,3.38,3.38,0,0,0,2.45-1l1.19,1.24a5,5,0,0,1-3.82,1.56,4.62,4.62,0,1,1-.05-9.25C268.08,302.67,269.46,304.76,269.24,308.06Zm-2-1.48a2.16,2.16,0,0,0-2.33-2.19,2.38,2.38,0,0,0-2.43,2.19Z"/><path d="M279.3,308.06h-6.71a2.54,2.54,0,0,0,2.6,2.07,3.38,3.38,0,0,0,2.45-1l1.19,1.24a5,5,0,0,1-3.82,1.56,4.62,4.62,0,1,1-.05-9.25C278.15,302.67,279.52,304.76,279.3,308.06Zm-2-1.48a2.16,2.16,0,0,0-2.33-2.19,2.38,2.38,0,0,0-2.43,2.19Z"/><path d="M284.91,307.86l-1.39,1.46v2.52h-2.21V299.22h2.21v7.31l3.74-3.77h2.55l-3.37,3.5,3.57,5.58h-2.63Z"/><path d="M299.21,308.06H292.5a2.54,2.54,0,0,0,2.6,2.07,3.38,3.38,0,0,0,2.45-1l1.19,1.24a5,5,0,0,1-3.82,1.56,4.62,4.62,0,1,1-.05-9.25C298.06,302.67,299.43,304.76,299.21,308.06Zm-2-1.48a2.16,2.16,0,0,0-2.33-2.19,2.38,2.38,0,0,0-2.43,2.19Z"/><path d="M310,306.16v5.68h-2.23v-5a1.89,1.89,0,0,0-2-2.06,2.38,2.38,0,0,0-2.38,2.62v4.47h-2.21v-9.09h2.21v1.7a3.46,3.46,0,0,1,3.26-1.79A3.18,3.18,0,0,1,310,306.16Z"/><path d="M321.23,299.22v12.61H319v-1.46a3.45,3.45,0,0,1-3.06,1.56c-2.6,0-4.33-1.9-4.33-4.67s1.73-4.61,4.28-4.61a3.5,3.5,0,0,1,3.11,1.58v-5ZM319,307.31a2.56,2.56,0,0,0-2.58-2.77,2.78,2.78,0,0,0,0,5.54A2.56,2.56,0,0,0,319,307.31Z"/><path d="M65,10c0-.46-.35-.72-1-.72a4,4,0,0,0-2.33,1.07l-.83-1.62a5.91,5.91,0,0,1,3.48-1.27c1.7,0,2.94.89,2.94,2.22a4.53,4.53,0,0,1-1.63,2.81l-1.73,1.73h3.6V16h-6.4V14.55l3.06-3.14A2.51,2.51,0,0,0,65,10Z"/><path d="M74.81,13.35c0,1.62-1.33,2.75-3.42,2.75a5.71,5.71,0,0,1-3.31-1L69,13.37a3.14,3.14,0,0,0,2.25,1c.92,0,1.44-.38,1.44-1s-.52-1-1.45-1H69.8V11.18l2-1.88H68.53V7.6h5.88V8.88L72.13,11l.42.06A2.36,2.36,0,0,1,74.81,13.35Z"/><path d="M82.18,7.59l2.23,4.91,2.23-4.91H89V16H87.1V10.68l-2,4.49H83.69l-2-4.49V16h-2V7.59Z"/><path d="M96.45,11.78V16h-2.1v-.73a2.34,2.34,0,0,1-2,.83,2,2,0,0,1-2.22-2c0-1.23.88-1.94,2.48-2h1.69V12c0-.61-.42-1-1.24-1a4.76,4.76,0,0,0-1.94.52l-.59-1.44a7.15,7.15,0,0,1,3-.71C95.39,9.43,96.44,10.29,96.45,11.78Zm-2.1,2v-.56H93.08c-.6,0-.9.22-.9.67s.32.73.88.73A1.28,1.28,0,0,0,94.35,13.81Z"/><path d="M98.77,18.42a3,3,0,0,1-1.92-.67l.89-1.48a1.27,1.27,0,0,0,.86.36.82.82,0,0,0,.78-.49l.16-.3L96.85,9.51H99l1.55,4.22L102,9.51h2.12l-2.78,7.12A2.54,2.54,0,0,1,98.77,18.42Z"/><path d="M67.41,72.32c0,1.62-1.33,2.75-3.42,2.75a5.72,5.72,0,0,1-3.31-1l.89-1.69a3.14,3.14,0,0,0,2.25,1c.92,0,1.44-.38,1.44-1s-.52-1-1.45-1H62.4V70.15l2-1.88H61.12V66.57H67v1.27L64.72,70l.42.06A2.36,2.36,0,0,1,67.41,72.32Z"/><path d="M75,70.76C75,73.5,73.78,75,71.67,75s-3.3-1.52-3.3-4.27,1.16-4.26,3.3-4.26S75,68,75,70.76Zm-4.49,0c0,1.92.35,2.72,1.2,2.72s1.19-.8,1.19-2.72S72.51,68,71.67,68,70.47,68.83,70.47,70.76Z"/><path d="M82.18,66.56l2.23,4.91,2.23-4.91H89V75H87.1V69.64l-2,4.49H83.69l-2-4.49V75h-2V66.56Z"/><path d="M96.45,70.75V75h-2.1v-.73a2.34,2.34,0,0,1-2,.83,2,2,0,0,1-2.22-2c0-1.23.88-1.94,2.48-2h1.69V71c0-.61-.42-1-1.24-1a4.76,4.76,0,0,0-1.94.52l-.59-1.44a7.15,7.15,0,0,1,3-.71C95.39,68.4,96.44,69.26,96.45,70.75Zm-2.1,2v-.56H93.08c-.6,0-.9.22-.9.67s.32.73.88.73A1.28,1.28,0,0,0,94.35,72.77Z"/><path d="M98.77,77.39a3,3,0,0,1-1.92-.67l.89-1.48a1.27,1.27,0,0,0,.86.36.82.82,0,0,0,.78-.49l.16-.3-2.69-6.33H99l1.55,4.22L102,68.48h2.12l-2.78,7.12A2.54,2.54,0,0,1,98.77,77.39Z"/><path d="M67.64,127.1c-1.31,0-1.94.84-1.92,2.21a2.25,2.25,0,0,1,2-.9,2.54,2.54,0,0,1,2.69,2.72,2.82,2.82,0,0,1-3.09,2.9c-2.23,0-3.57-1.59-3.57-4.17s1.5-4.43,3.81-4.43a5.41,5.41,0,0,1,2.67.7l-.8,1.51A3,3,0,0,0,67.64,127.1Zm-1.69,4.05a1.11,1.11,0,0,0,1.24,1.15,1.09,1.09,0,0,0,1.2-1.19A1.06,1.06,0,0,0,67.21,130,1.14,1.14,0,0,0,65.95,131.15Z"/><path d="M77.11,134a3.72,3.72,0,0,1-2.93-1.35l1-1.5a2.69,2.69,0,0,0,1.76.95c.54,0,.88-.34.88-1v-3.81H74.95v-1.81H80v5.67A2.65,2.65,0,0,1,77.11,134Z"/><path d="M87.86,127.45v6.49H85.72v-1.06A2.29,2.29,0,0,1,83.65,134a2.25,2.25,0,0,1-2.31-2.48v-4.1h2.13v3.49a1,1,0,0,0,1,1.18c.76,0,1.21-.61,1.21-1.46v-3.2Z"/><path d="M96.12,129.84v4.09H94v-3.48a1.07,1.07,0,0,0-1.1-1.19,1.27,1.27,0,0,0-1.27,1.24v3.43H89.49v-6.49h2.13v1.06a2.38,2.38,0,0,1,2.15-1.14A2.27,2.27,0,0,1,96.12,129.84Z"/><path d="M103.71,131.26H99.2a1.45,1.45,0,0,0,1.48,1.14,2.15,2.15,0,0,0,1.52-.66l1.12,1.12a3.65,3.65,0,0,1-2.83,1.15,3.14,3.14,0,0,1-3.43-3.29,3.18,3.18,0,0,1,3.38-3.35C102.7,127.37,103.85,128.9,103.71,131.26Zm-2.06-1.14a1.16,1.16,0,0,0-1.2-1.25,1.34,1.34,0,0,0-1.3,1.25Z"/><path d="M60.75,184.49v8.41H58.56v-6.61H56.94v-1.8Z"/><path d="M70.09,190.25c0,1.62-1.33,2.75-3.42,2.75a5.71,5.71,0,0,1-3.31-1l.89-1.69a3.14,3.14,0,0,0,2.25,1c.92,0,1.44-.38,1.44-1s-.52-1-1.45-1H65.07v-1.18l2-1.88H63.8V184.5h5.88v1.27l-2.27,2.11.42.06A2.36,2.36,0,0,1,70.09,190.25Z"/><path d="M77.11,193a3.72,3.72,0,0,1-2.93-1.35l1-1.5a2.69,2.69,0,0,0,1.76.95c.54,0,.88-.34.88-1V186.3H74.95v-1.81H80v5.67A2.65,2.65,0,0,1,77.11,193Z"/><path d="M87.86,186.41v6.49H85.72v-1.06A2.29,2.29,0,0,1,83.65,193a2.25,2.25,0,0,1-2.31-2.48v-4.1h2.13v3.49a1,1,0,0,0,1,1.18c.76,0,1.21-.61,1.21-1.46v-3.2Z"/><path d="M96.12,188.81v4.09H94v-3.48a1.07,1.07,0,0,0-1.1-1.19,1.27,1.27,0,0,0-1.27,1.24v3.43H89.49v-6.49h2.13v1.06a2.38,2.38,0,0,1,2.15-1.14A2.27,2.27,0,0,1,96.12,188.81Z"/><path d="M103.71,190.23H99.2a1.45,1.45,0,0,0,1.48,1.14,2.15,2.15,0,0,0,1.52-.66l1.12,1.12a3.65,3.65,0,0,1-2.83,1.15,3.14,3.14,0,0,1-3.43-3.29,3.18,3.18,0,0,1,3.38-3.35C102.7,186.34,103.85,187.86,103.71,190.23Zm-2.06-1.14a1.16,1.16,0,0,0-1.2-1.25,1.34,1.34,0,0,0-1.3,1.25Z"/><path d="M60.25,245.9c0-.46-.35-.72-1-.72A4,4,0,0,0,57,246.24l-.83-1.62a5.91,5.91,0,0,1,3.48-1.27c1.7,0,2.94.89,2.94,2.22a4.53,4.53,0,0,1-1.63,2.81l-1.73,1.73h3.6v1.76h-6.4v-1.45l3.06-3.14A2.51,2.51,0,0,0,60.25,245.9Z"/><path d="M70.23,247.66c0,2.75-1.18,4.27-3.29,4.27s-3.3-1.52-3.3-4.27,1.16-4.26,3.3-4.26S70.23,244.91,70.23,247.66Zm-4.49,0c0,1.92.35,2.72,1.2,2.72s1.19-.8,1.19-2.72-.35-2.72-1.19-2.72S65.74,245.73,65.74,247.66Z"/><path d="M77.11,252a3.72,3.72,0,0,1-2.93-1.35l1-1.5a2.69,2.69,0,0,0,1.76.95c.54,0,.88-.34.88-1v-3.81H74.95v-1.81H80v5.67A2.65,2.65,0,0,1,77.11,252Z"/><path d="M87.86,245.38v6.49H85.72v-1.06A2.29,2.29,0,0,1,83.65,252a2.25,2.25,0,0,1-2.31-2.48v-4.1h2.13v3.49a1,1,0,0,0,1,1.18c.76,0,1.21-.61,1.21-1.46v-3.2Z"/><path d="M96.12,247.78v4.09H94v-3.48a1.07,1.07,0,0,0-1.1-1.19,1.27,1.27,0,0,0-1.27,1.24v3.43H89.49v-6.49h2.13v1.06a2.38,2.38,0,0,1,2.15-1.14A2.27,2.27,0,0,1,96.12,247.78Z"/><path d="M103.71,249.19H99.2a1.45,1.45,0,0,0,1.48,1.14,2.15,2.15,0,0,0,1.52-.66l1.12,1.12a3.65,3.65,0,0,1-2.83,1.15,3.14,3.14,0,0,1-3.43-3.29,3.18,3.18,0,0,1,3.38-3.35C102.7,245.31,103.85,246.83,103.71,249.19Zm-2.06-1.14a1.16,1.16,0,0,0-1.2-1.25,1.34,1.34,0,0,0-1.3,1.25Z"/><path d="M14.65,308.18c0,1.62-1.33,2.75-3.42,2.75a5.72,5.72,0,0,1-3.31-1l.89-1.69a3.14,3.14,0,0,0,2.25,1c.92,0,1.44-.38,1.44-1s-.52-1-1.45-1H9.63V306l2-1.88H8.36v-1.69h5.88v1.27L12,305.82l.42.06A2.36,2.36,0,0,1,14.65,308.18Z"/><path d="M22.19,306.62c0,2.75-1.18,4.27-3.29,4.27s-3.3-1.52-3.3-4.27,1.16-4.26,3.3-4.26S22.19,303.88,22.19,306.62Zm-4.49,0c0,1.92.35,2.72,1.2,2.72s1.19-.8,1.19-2.72-.35-2.72-1.19-2.72S17.71,304.69,17.71,306.62Z"/><path d="M29.07,310.93a3.72,3.72,0,0,1-2.93-1.35l1-1.5a2.69,2.69,0,0,0,1.76.95c.54,0,.88-.34.88-1v-3.81H26.91v-1.81H32v5.67A2.65,2.65,0,0,1,29.07,310.93Z"/><path d="M39.82,304.35v6.49H37.69v-1.06a2.29,2.29,0,0,1-2.07,1.15,2.25,2.25,0,0,1-2.31-2.48v-4.1h2.13v3.49a1,1,0,0,0,1,1.18c.76,0,1.21-.61,1.21-1.46v-3.2Z"/><path d="M48.09,306.74v4.09H46v-3.48a1.07,1.07,0,0,0-1.1-1.19,1.27,1.27,0,0,0-1.27,1.24v3.43H41.46v-6.49h2.13v1.06a2.38,2.38,0,0,1,2.15-1.14A2.27,2.27,0,0,1,48.09,306.74Z"/><path d="M55.67,308.16H51.16a1.45,1.45,0,0,0,1.48,1.14,2.15,2.15,0,0,0,1.52-.66l1.12,1.12a3.65,3.65,0,0,1-2.83,1.15A3.14,3.14,0,0,1,49,307.62a3.18,3.18,0,0,1,3.38-3.35C54.67,304.27,55.82,305.8,55.67,308.16ZM53.61,307a1.16,1.16,0,0,0-1.2-1.25,1.34,1.34,0,0,0-1.3,1.25Z"/><path d="M63.4,306.47v1.37H60.22v-1.37Z"/><path d="M72.08,304.86c0-.46-.35-.72-1-.72a4,4,0,0,0-2.33,1.07L68,303.59a5.91,5.91,0,0,1,3.48-1.27c1.7,0,2.94.89,2.94,2.22a4.53,4.53,0,0,1-1.63,2.81L71,309.07h3.6v1.76h-6.4v-1.45l3.06-3.14A2.51,2.51,0,0,0,72.08,304.86Z"/><path d="M81.53,310.93a3.72,3.72,0,0,1-2.93-1.35l1-1.5a2.69,2.69,0,0,0,1.76.95c.54,0,.88-.34.88-1v-3.81H79.38v-1.81h5.09v5.67A2.65,2.65,0,0,1,81.53,310.93Z"/><path d="M92.28,304.35v6.49H90.15v-1.06a2.29,2.29,0,0,1-2.07,1.15,2.25,2.25,0,0,1-2.31-2.48v-4.1h2.13v3.49a1,1,0,0,0,1,1.18c.76,0,1.21-.61,1.21-1.46v-3.2Z"/><path d="M96.11,301.94v8.9H94v-8.9Z"/><path d="M98.77,313.26a3,3,0,0,1-1.92-.67l.89-1.48a1.27,1.27,0,0,0,.86.36.82.82,0,0,0,.78-.49l.16-.3-2.69-6.33H99l1.55,4.22,1.38-4.22h2.12l-2.78,7.12A2.54,2.54,0,0,1,98.77,313.26Z"/><line class="cls-1" x1="124" y1="5" x2="124" y2="325.01"/><line class="cls-2" x1="110" y1="13.33" x2="138.67" y2="13.33"/><line class="cls-2" x1="110" y1="72.23" x2="138.67" y2="72.23"/><line class="cls-2" x1="109.67" y1="190.03" x2="138.33" y2="190.03"/><line class="cls-2" x1="110" y1="248.93" x2="138.67" y2="248.93"/><line class="cls-2" x1="110" y1="307.83" x2="138.67" y2="307.83"/><line class="cls-2" x1="109.67" y1="131.13" x2="138.33" y2="131.13"/></svg>